<?xml version="1.0" encoding="UTF-8"?>
<svg id="_图层_1" data-name="图层_1" xmlns="http://www.w3.org/2000/svg" viewBox="0 0 252.35 186.14">
  <defs>
    <style>
      .cls-1 {
        fill: #fff;
      }
    </style>
  </defs>
  <path d="M0,103.94c-.01-3.8.43-7.54,1.19-11.22,1.27-6.08,3.41-11.83,6.53-17.24,2.85-4.95,6.33-9.37,10.49-13.25,4.64-4.33,9.85-7.82,15.66-10.44,4.53-2.04,9.23-3.46,14.1-4.33,2.09-.37,4.24-.45,6.37-.61,1.52-.11,3.06-.25,4.58-.16,2.43.14,4.85.44,7.27.7,5.42.59,10.54,2.27,15.48,4.5,5.31,2.39,10.1,5.59,14.46,9.47,4.68,4.16,8.56,8.97,11.64,14.41,2.77,4.91,4.83,10.11,6.03,15.64.74,3.44,1.35,6.88,1.29,10.41-.05,2.9.06,5.81-.24,8.68-.28,2.64-.88,5.27-1.58,7.85-.72,2.69-1.57,5.37-2.65,7.92-1.12,2.63-2.45,5.19-3.94,7.63-1.56,2.56-4.99,3.22-7.46,1.13-.19-.16-.47-.27-.72-.28-2.24-.14-4.48-.35-6.73-.35-2.23,0-4.47.12-6.68.41-3.3.44-6.47,1.39-9.48,2.84-4.92,2.37-8.89,5.76-11.33,10.71-1.1,2.22-1.72,4.6-1.68,7.12.02,1.36-.25,2.64-1.06,3.79-.89,1.25-3.14,2.18-4.66,1.95-.88-.13-1.81.02-2.7-.09-2.65-.32-5.31-.67-7.94-1.09-5.14-.82-9.96-2.66-14.6-4.97-4.73-2.36-9.11-5.27-12.9-8.96-2.42-2.35-4.75-4.83-6.85-7.46-3.32-4.18-5.98-8.78-7.79-13.83-.89-2.49-1.79-4.99-2.45-7.55-.54-2.08-.78-4.25-1.04-6.39-.28-2.3-.42-4.62-.62-6.93ZM100.03,125.58c1.57-3.1,2.83-6.35,3.71-9.77,1.11-4.27,1.6-8.59,1.56-12.98,0-.73-.12-1.46-.16-2.19-.16-3.22-.71-6.37-1.61-9.45-1.35-4.66-3.32-9.06-5.99-13.13-3.93-5.98-8.95-10.84-15.05-14.56-4.44-2.71-9.18-4.73-14.3-5.72-2.84-.55-5.72-1.01-8.61-1.18-4.91-.29-9.8.21-14.5,1.7-3.04.96-6.09,2.03-8.96,3.41-5.49,2.65-10.19,6.4-14.24,10.98-4.53,5.12-7.77,10.96-9.79,17.45-1.03,3.32-1.78,6.74-1.88,10.24-.08,2.88-.2,5.78.08,8.63.45,4.5,1.62,8.86,3.36,13.07,2.26,5.44,5.42,10.26,9.44,14.54,3.39,3.59,7.3,6.52,11.6,8.92,3.42,1.91,7.07,3.3,10.84,4.32,2.28.61,4.65.9,6.99,1.3.16.03.5-.21.55-.38.27-.95.49-1.93.72-2.9-1.7-.51-3.35-.93-4.95-1.5-7.12-2.57-13.35-6.55-18.71-11.9-3.67-3.66-6.74-7.76-8.83-12.52-.72-1.64-1.43-3.35-1.73-5.09-.4-2.41,1.45-4.78,3.73-5.29,2.5-.56,4.86.75,5.81,3.22.49,1.25.91,2.54,1.5,3.75,2.52,5.16,6.28,9.29,10.83,12.74,2.84,2.15,5.91,3.95,9.22,5.21,2.41.92,4.95,1.47,7.45,2.14.23.06.63-.07.81-.26.6-.63,1.14-1.33,1.75-2.06-.87-.72-1.73-1.36-2.51-2.08-4.15-3.83-7.7-8.18-10.76-12.91-3.09-4.78-5.77-9.79-7.95-15.06-2.3-5.59-4.21-11.28-4.74-17.34-.31-3.55-.41-7.1.94-10.52,1.52-3.82,4.66-6.5,9.05-6.57,2.88-.05,5.45.97,7.88,2.4,3.08,1.82,5.69,4.2,8.13,6.81,2.71,2.9,5.11,6.03,7.28,9.34,3.87,5.9,7.07,12.14,9.47,18.79,1.82,5.04,3.37,10.13,3.63,15.53.03.57.24.78.8.67.87-.16,1.75-.25,2.61-.45.25-.06.5-.33.66-.57,3.55-5.3,5.24-11.12,4.62-17.49-.71-7.18-4.1-12.97-9.66-17.51-2.33-1.91-2.79-4.78-1.26-6.92,1.77-2.47,4.84-2.74,7.04-1.07,4.2,3.2,7.47,7.2,9.94,11.86,2.16,4.08,3.45,8.42,3.83,13,.3,3.65.2,7.31-.78,10.86-.72,2.6-1.58,5.16-2.37,7.71,1.02.24,2.2.52,3.5.83ZM44.23,85.41c.12,3.04.71,5.98,1.52,8.86,1.67,5.99,4.16,11.66,7.22,17.07,2.6,4.6,5.57,8.92,9.12,12.84,1.88,2.07,3.94,3.94,6.39,5.34.44.25,2.96-.58,3.14-1.05.05-.12-.04-.28-.06-.43-.14-1-.26-1.99-.42-2.99-.39-2.41-.65-4.85-1.24-7.2-1.44-5.79-3.86-11.2-6.74-16.41-3.2-5.78-6.91-11.2-11.71-15.79-1.65-1.58-3.46-3-5.63-3.87-.67-.27-1-.09-1.11.56-.18,1.02-.33,2.04-.49,3.06Z"/>
  <path d="M123.97,29.68c3.86-.08,7.26.45,10.53,1.66,4.22,1.56,7.85,3.99,10.89,7.33,3.4,3.73,5.55,8.09,6.72,12.93.79,3.24,1.09,6.59.81,9.93-.5,6.12-2.27,11.88-5.39,17.17-3.83,6.49-9.01,11.66-15.65,15.27-1.06.58-2.35.8-3.57.99-1.59.25-3.17.39-4.78-.21-2.22-.84-3.48-2.47-4.2-4.61-1.18-3.55-2.34-7.11-3.49-10.67-1.12-3.48-2.21-6.96-3.33-10.44-1.39-4.31-2.8-8.62-4.18-12.93-1.02-3.18-2.03-6.38-3.04-9.57-.45-1.42-.88-2.84-1.34-4.25-.78-2.38.18-4.28,1.65-6.04,1.88-2.27,4.48-3.39,7.14-4.41,2.97-1.13,6.05-1.78,9.19-2.13.79-.09,1.6-.01,2.02-.01ZM129.92,79.04c.31-.26.53-.42.72-.6,4.6-4.34,7.52-9.54,8.51-15.85.52-3.33.35-6.56-.75-9.73-2.19-6.34-7.33-9.84-13.82-9.87-1.68,0-3.37.44-5.06.66-.77.1-.93.44-.68,1.17.97,2.85,1.91,5.71,2.83,8.57.84,2.6,1.63,5.22,2.46,7.82.85,2.66,1.72,5.31,2.58,7.97,1.05,3.24,2.1,6.47,3.2,9.85Z"/>
  <path d="M170.39,81.29c-1.03,1.65-1.89,3.01-2.73,4.37-1.4,2.25-2.86,4.47-4.17,6.77-.86,1.5-1.46,3.15-2.24,4.69-1.67,3.29-6.18,5.04-9.76,2.65-2.53-1.69-3.52-4.04-3.05-6.92.23-1.37.93-2.69,1.59-3.95,1.74-3.34,3.44-6.71,5.39-9.94,1.54-2.54,3.38-4.91,5.16-7.3.5-.68.79-1.33.79-2.16-.01-4.03.01-8.07,0-12.1-.01-2.89-.08-5.77-.08-8.65,0-.68-.26-.79-.87-.82-3.9-.17-6.76-3.28-6.51-7.1.15-2.33,1.46-4.01,3.25-5.39,2.67-2.05,5.64-3.25,8.99-3.8,2.18-.36,4.34-.35,6.49-.24,2.68.14,4.81,1.51,5.88,4.03,1.16,2.74.55,5.25-1.51,7.4-.32.33-.6.76-.99.95-1.12.56-1.35,1.42-1.29,2.61.16,3.03.24,6.07.28,9.1.03,2.57-.07,5.15-.06,7.73,0,1.56.09,3.13.17,4.69,0,.19.17.45.34.53,4.84,2.39,7.46,6.57,8.97,11.5,1.08,3.51,1.95,7.1,2.56,10.71.27,1.57-.22,3.32-.59,4.95-.78,3.52-4.22,5.48-7.78,4.86-2.46-.43-4.85-2.71-5.15-5.19-.1-.86,0-1.74-.03-2.61-.03-.79-.01-1.6-.2-2.36-.62-2.45-1.31-4.88-2.01-7.3-.15-.51-.46-.96-.83-1.7Z"/>
  <path d="M183.06,55.94c.05-5.22,1.09-10.22,3.03-15.01,2.06-5.08,5.07-9.54,9.47-12.92,3.17-2.43,6.7-4.01,10.76-4.47,4.71-.54,8.94.61,12.87,3.08,2.49,1.56,4.02,3.72,3.74,6.84-.28,3.05-2.74,5.47-5.76,5.81-1.86.21-3.53-.27-5.08-1.31-2.88-1.92-5.86-1.43-8.63.93-2.43,2.07-3.97,4.73-5.1,7.65-1.17,3.02-1.74,6.18-1.7,9.38.06,4.5.92,8.83,3.79,12.51,1.57,2.02,3.56,3.41,6.18,3.07,2.3-.3,4.16-1.64,5.66-3.43.84-1.01,1.61-2.1,2.56-3,3.58-3.42,9.38-1.76,10.91,2.78.8,2.39.17,4.47-1.17,6.36-1.78,2.5-3.87,4.74-6.4,6.51-2.52,1.76-5.22,3.05-8.28,3.7-3.91.83-7.65.49-11.31-1.02-4.97-2.05-8.54-5.66-11.14-10.29-1.92-3.43-3.21-7.09-3.71-11-.26-2.06-.45-4.12-.68-6.19Z"/>
  <path d="M234.41,136.52c1.25-.28,2.52-.83,3.76-.79,3.2.11,5.17,2.45,4.68,5.78-.16,1.1-.71,2.05-1.6,2.7-1.69,1.23-3.45,2.37-5.45,3.74.19,1.32.43,3,.69,4.68.4,2.62.8,5.23,1.23,7.84.27,1.63.29,3.2-.48,4.72-.93,1.85-3.18,2.98-5.23,2.58-2.07-.4-3.68-2.14-3.95-4.17-.45-3.35-.95-6.69-1.43-10.04-.12-.81-.23-1.63-.37-2.44-.08-.46-.22-.73-.86-.6-2.02.44-4.07.73-6.09,1.16-4.85,1.04-9.92-1.02-12.42-5.26-1-1.7-1.62-3.58-1.66-5.63-.05-3.16.38-6.26.8-9.39.3-2.22.77-4.37,1.43-6.48.72-2.32,1.53-4.61,2.29-6.92.72-2.19,1.37-4.41,2.15-6.58,1.13-3.14,2.37-6.25,3.54-9.38.6-1.61,1.15-3.25,1.74-4.86.78-2.11,3.91-3.55,6.22-2.59.66.27,1.44.21,2.13.43,2.31.73,3.43,2.42,3.64,4.75.22,2.46.31,4.94.61,7.39.47,3.86,1.04,7.71,1.61,11.55.6,4.06,1.23,8.12,1.89,12.17.32,1.94.75,3.86,1.1,5.64ZM220.95,116.75c-.07,0-.13-.02-.2-.03-.08.15-.18.3-.24.46-1.29,3.88-2.69,7.73-3.84,11.65-1.09,3.71-1.5,7.55-1.41,11.43.03,1.32.34,1.63,1.63,1.65,2.54.03,4.93-.74,7.35-1.35.18-.05.42-.47.39-.69-.54-3.65-1.1-7.29-1.68-10.94-.65-4.06-1.34-8.12-2.01-12.18Z"/>
  <path d="M128.58,163.77c1.31-.39,2.34-.71,3.39-.99,1.08-.29,2.17-.53,3.26-.78.74-.17,1.48-.37,2.23-.44,1.64-.16,4.04.95,4.93,3,1.39,3.2-1.03,6.33-3.79,6.75-3.58.54-6.98,1.73-10.37,2.96-2.01.73-4.05,1.41-6.07,2.1-2.21.76-5.08-.42-6.39-2.41-1.39-2.11-1.14-4.11-.09-6.2,1.91-3.82,3.78-7.67,5.69-11.5,1.5-3.01,3.12-5.95,4.52-9,.93-2.03,1.53-4.22,2.34-6.31.93-2.41,1.99-4.76,2.9-7.18.9-2.37,1.85-4.73,2.02-7.3.08-1.28.23-2.56.21-3.84-.02-1.65-.24-3.28-1.1-4.73-.3-.5-.79-.87-1.14-1.24-1.52.49-2.65,1.32-3.33,2.59-.64,1.2-1.22,2.46-1.59,3.77-1.12,3.93-1.59,7.96-1.79,12.04-.08,1.65-.34,3.35-.85,4.92-.67,2.02-2.51,3.06-4.43,3.01-1.96-.05-3.63-1.1-4.44-2.97-.57-1.32-.34-2.66-.3-3.99.05-1.55.2-3.1.38-4.64.53-4.34,1-8.69,2.53-12.84,1.31-3.55,3.09-6.77,6.27-8.98,3.23-2.23,6.8-3.7,10.67-2.25,3.31,1.24,5.83,3.64,7.26,7.05,1.66,3.94,2,8.04,1.6,12.2-.31,3.25-1.15,6.4-2.35,9.46-1.64,4.18-3.1,8.43-4.81,12.58-1.21,2.94-2.68,5.77-4.07,8.63-1.03,2.12-2.13,4.22-3.31,6.54Z"/>
  <path d="M176.73,129.03c-.19,3.53-.25,6.38-.53,9.2-.39,3.9-.96,7.79-1.44,11.68-.2,1.57-.33,3.15-.57,4.71-.91,5.91-3.44,10.72-8.74,13.98-2.84,1.75-5.72,2.17-8.76,1.33-2.87-.8-4.88-2.86-6.52-5.32-2.13-3.19-2.92-6.82-3.41-10.49-.34-2.54-.22-5.16-.13-7.73.09-2.56.26-5.13.65-7.65.42-2.69.65-5.38.96-8.07.43-3.72,1.09-7.45,2.66-10.94.6-1.34,1.02-2.77,2.17-3.75,1.82-1.56,3.61-3.17,5.55-4.58,1.76-1.28,3.81-2.05,6.02-2.12,4.17-.12,7.08,1.9,9.16,5.41,1.31,2.21,1.89,4.6,2.19,7.08.33,2.63.54,5.28.73,7.26ZM166.88,129.77c-.06,0-.11-.02-.17-.03-.09-1.62-.09-3.25-.28-4.86-.19-1.54-.51-3.06-.91-4.56-.28-1.05-.76-1.19-1.61-.59-1.49,1.05-2.8,2.27-3.36,4.1-.32,1.05-.74,2.07-1.03,3.12-.45,1.64-.88,3.29-1.21,4.96-.23,1.19-.26,2.42-.43,3.63-.34,2.44-.8,4.87-1.04,7.33-.37,3.75-.56,7.51,0,11.26.3,2.01.82,3.95,2.05,5.62.44.59.84.69,1.53.3,2.38-1.32,3.31-3.58,3.77-6.01.59-3.14,1-6.32,1.34-9.5.52-4.92.9-9.86,1.34-14.79Z"/>
  <path d="M110.24,173.47c.13,2.15-2.09,4.61-4.53,4.95-1.08.15-2.09.88-3.09,1.41-2.5,1.32-4.98,2.65-7.45,4.01-1.01.56-1.96,1.23-2.99,1.76-1.79.92-3.53.65-5.02-.63-2.61-2.24-5.13-4.58-7.71-6.86-3.25-2.87-6.54-5.7-9.77-8.6-1.1-.99-2.15-2.06-3.05-3.23-.43-.55-.58-1.41-.63-2.15-.09-1.28-.14-2.6.03-3.87.15-1.15.55-2.28.96-3.37,1.64-4.27,4.41-7.68,8.02-10.46,3.93-3.03,8.3-5.14,13.16-6.14,1.96-.4,3.98-.49,5.96-.78,1.5-.22,2.96-.12,4.38.39,1.32.47,2.14,1.5,2.78,2.7,1.51,2.8,1.92,5.97,2.96,8.93.63,1.81.91,3.74,1.43,5.59.47,1.68,1.07,3.33,1.58,5,.23.75.39,1.52.59,2.28.5,1.85,1.03,3.69,1.52,5.55.31,1.17.57,2.34.85,3.52ZM75.54,161.66c.17.25.35.65.64.91,2.13,1.91,4.28,3.78,6.42,5.67,2.52,2.22,5.07,4.43,7.55,6.69.42.39.64.47,1.14.2,2.57-1.41,5.16-2.78,7.76-4.14.49-.26.59-.51.42-1.08-.92-3.13-1.77-6.28-2.65-9.43-1.01-3.61-2.02-7.21-3.02-10.82-.14-.52-.39-.82-.97-.68-1.52.37-3.06.69-4.56,1.13-4.3,1.26-7.9,3.61-10.71,7.11-.99,1.24-1.68,2.66-2,4.43Z"/>
  <path d="M187.25,157.56c.62-.2,1.24-.4,1.86-.59.93-.28,1.86-.54,2.78-.84.28-.09.57-.24.78-.44,2.65-2.45,6.76-1.76,8.31,2.02,1.32,3.2-.18,6.18-3.51,7.14-2.78.8-5.5,1.78-8.28,2.58-3.17.91-6.37.91-9.34-.65-1.89-.99-2.95-2.71-3.29-4.89-.43-2.74.4-5.25,1.25-7.75.68-2.01,1.51-3.97,2.31-5.93.76-1.88,1.56-3.74,2.37-5.6,1.08-2.45,2.22-4.87,3.27-7.34.87-2.04,1.69-4.1,2.43-6.18.71-2,1.2-4.07,1.93-6.06,1.05-2.85,1.19-5.79,1.02-8.76-.04-.73-.41-1.46-.74-2.14-.28-.59-.78-.64-1.29-.2-.87.75-1.25,1.76-1.56,2.82-.24.81-.4,1.69-.83,2.4-1.97,3.29-6.35,3.36-8.46.16-.88-1.32-1.01-2.79-.51-4.29.44-1.35.88-2.7,1.41-4.02,1.12-2.75,3.1-4.66,5.71-6.07,4.37-2.36,10.43-1.09,13.26,2.76,1.53,2.09,2.49,4.46,2.82,7.01.45,3.42.36,6.85-.45,10.21-.49,2.07-1.18,4.09-1.87,6.1-1.1,3.19-2.22,6.36-3.44,9.51-.71,1.84-1.66,3.58-2.43,5.4-1.01,2.34-1.93,4.72-2.94,7.07-.91,2.11-1.88,4.2-2.82,6.3.08.09.15.19.23.28Z"/>
  <path d="M242.94,17.01c-.38,2.78-.62,5.58-1.16,8.32-.63,3.21-1.48,6.38-2.3,9.55-.53,2.07-1.76,3.5-3.93,4.03-2.39.59-5.11-1.04-5.77-3.43-.35-1.28-.12-2.5.25-3.67,1.22-3.87,2.19-7.78,2.57-11.83.2-2.13.28-4.25-.07-6.35-.17-.99-.59-1.97-1.07-2.86-.45-.85-1.39-.94-2.26-.84-1.77.21-3.41.84-4.97,1.69-2.76,1.52-5.3,3.35-7.69,5.4-2.57,2.21-6.75,1.47-8.05-2.06-.65-1.76-.05-3.97,1.73-5.51,3.78-3.27,7.84-6.13,12.53-7.99,2.25-.89,4.6-1.5,7.04-1.45,5.07.1,8.77,2.47,11.02,7,1.56,3.13,1.94,6.52,1.91,9.98.08.01.15.02.23.03Z"/>
  <path d="M83.3,25.82c.02-2.94.32-5.82,1.09-8.63,1.17-4.28,3.39-7.8,7.52-9.82,2.68-1.31,5.52-1.45,8.4-.87,5,1.01,9.06,3.8,12.89,6.97,1.18.97,2.32,2,3.36,3.11,1.58,1.68,1.75,4.14.56,6.1-1.01,1.67-3.42,2.66-5.41,1.97-1.06-.36-2.08-1.04-2.9-1.81-2.4-2.24-4.89-4.34-7.88-5.74-.92-.43-1.94-.77-2.94-.89-2.23-.25-2.76.41-3.54,2.39-1.14,2.91-1.36,5.99-.98,9.1.32,2.69.62,5.39.99,8.08.14,1.02.5,2,.7,3.02.33,1.65.41,3.25-.72,4.71-1.35,1.74-3.16,2.23-5.15,1.8-1.79-.39-3.13-1.6-3.53-3.43-.71-3.3-1.32-6.62-1.85-9.96-.32-2.01-.42-4.06-.61-6.1Z"/>
  <path d="M236.64,83.06c.08-1.56.73-2.84,1.91-3.85.88-.75,1.82-1.43,2.66-2.22,1.57-1.5,1.57-4.49.06-6.01-.67-.67-1.42-1.29-2-2.03-1.86-2.39-1.89-5.26,1.16-7.74.21-.17.42-.36.63-.53.89-.72,1.56-1.53,1.26-2.81-.34-1.44-1.04-2.54-2.5-3.1-1.26-.48-2.63-.7-3.64-1.78-2.45-2.62-1.5-7.26,2.33-8.25,1.17-.3,2.61.11,3.85.45,2.13.59,4.08,1.61,5.65,3.2,2.36,2.38,3.94,5.15,4.14,8.61.08,1.3.42,2.6-.04,3.86-.51,1.42-1.07,2.82-1.72,4.18-.23.47-.34.78-.03,1.23,1.34,1.94,1.87,4.14,1.94,6.47.14,4.48-.91,8.54-4.41,11.61-1.39,1.21-2.9,2.34-4.5,3.24-2.17,1.21-5.57-.09-6.41-2.86-.1-.32-.25-.62-.33-.94-.05-.23-.01-.49-.01-.74Z"/>
  <path d="M158.05,10.27c.09-1.77.09-3.56.29-5.32.2-1.71,1.19-3,2.77-3.7,2.86-1.26,6.54.09,6.94,3.99.17,1.64-.13,3.32-.11,4.99.01,1.46.15,2.92.27,4.37.14,1.74.38,3.47-.79,5.02-1.25,1.65-2.91,2.35-4.9,2-1.6-.29-3.61-1.66-3.85-3.77-.29-2.51-.51-5.03-.76-7.55.04,0,.09-.02.13-.03Z"/>
  <path d="M187.08,2.41c3.4-.13,5.82,3.45,4.73,6.71-.52,1.57-1.34,2.97-2.22,4.37-.69,1.1-1.14,2.39-1.53,3.65-.55,1.77-2.41,3.37-4.26,3.47-2.37.13-4.15-1.07-5.01-3.05-.69-1.59-.4-3.1.12-4.52.96-2.61,1.73-5.32,3.44-7.61.79-1.06,1.57-2.13,2.89-2.57.6-.2,1.23-.3,1.84-.45Z"/>
  <path d="M141.48,23.22c-2.15,0-3.48-.85-4.56-2.29-1.17-1.56-2.45-2.99-4.3-3.88-1.71-.82-2.85-2.24-3.04-4.23-.2-2.22,1.33-4.08,3.4-4.94,1.8-.75,3.46-.2,4.95.68,3.04,1.78,5.6,4.12,7.43,7.18.99,1.65,1.06,3.36.08,5.03-.94,1.61-2.37,2.49-3.98,2.44Z"/>
  <path class="cls-1" d="M100.03,125.58c-1.31-.31-2.48-.59-3.5-.83.79-2.55,1.65-5.11,2.37-7.71.98-3.56,1.08-7.22.78-10.86-.38-4.58-1.66-8.92-3.83-13-2.47-4.67-5.74-8.67-9.94-11.86-2.19-1.67-5.27-1.39-7.04,1.07-1.53,2.14-1.07,5.01,1.26,6.92,5.56,4.54,8.95,10.33,9.66,17.51.63,6.37-1.06,12.19-4.62,17.49-.16.24-.41.51-.66.57-.86.2-1.74.29-2.61.45-.56.1-.77-.1-.8-.67-.25-5.4-1.81-10.49-3.63-15.53-2.4-6.65-5.6-12.89-9.47-18.79-2.17-3.31-4.56-6.44-7.28-9.34-2.44-2.61-5.05-5-8.13-6.81-2.42-1.43-5-2.45-7.88-2.4-4.4.07-7.54,2.75-9.05,6.57-1.36,3.41-1.25,6.97-.94,10.52.53,6.06,2.44,11.75,4.74,17.34,2.17,5.28,4.85,10.28,7.95,15.06,3.06,4.73,6.61,9.08,10.76,12.91.78.72,1.64,1.36,2.51,2.08-.61.73-1.15,1.43-1.75,2.06-.17.18-.57.32-.81.26-2.49-.67-5.04-1.22-7.45-2.14-3.32-1.26-6.38-3.06-9.22-5.21-4.55-3.45-8.31-7.58-10.83-12.74-.59-1.21-1.01-2.49-1.5-3.75-.95-2.46-3.31-3.77-5.81-3.22-2.28.51-4.13,2.89-3.73,5.29.29,1.75,1.01,3.45,1.73,5.09,2.09,4.76,5.16,8.86,8.83,12.52,5.36,5.35,11.59,9.33,18.71,11.9,1.59.57,3.25.99,4.95,1.5-.24.98-.45,1.95-.72,2.9-.05.17-.38.41-.55.38-2.34-.4-4.71-.68-6.99-1.3-3.77-1.01-7.42-2.41-10.84-4.32-4.3-2.4-8.22-5.33-11.6-8.92-4.02-4.27-7.18-9.1-9.44-14.54-1.75-4.21-2.91-8.56-3.36-13.07-.29-2.85-.16-5.76-.08-8.63.1-3.5.84-6.92,1.88-10.24,2.02-6.49,5.26-12.33,9.79-17.45,4.05-4.58,8.75-8.33,14.24-10.98,2.87-1.38,5.92-2.45,8.96-3.41,4.71-1.49,9.59-1.99,14.5-1.7,2.88.17,5.77.63,8.61,1.18,5.12.99,9.86,3.01,14.3,5.72,6.1,3.72,11.12,8.58,15.05,14.56,2.68,4.07,4.64,8.47,5.99,13.13.89,3.08,1.45,6.24,1.61,9.45.04.73.15,1.46.16,2.19.04,4.39-.45,8.72-1.56,12.98-.89,3.42-2.15,6.67-3.71,9.77Z"/>
  <path class="cls-1" d="M44.23,85.41c.16-1.02.31-2.04.49-3.06.12-.65.44-.83,1.11-.56,2.17.87,3.97,2.28,5.63,3.87,4.8,4.59,8.52,10.01,11.71,15.79,2.88,5.2,5.3,10.62,6.74,16.41.58,2.36.84,4.8,1.24,7.2.16.99.28,1.99.42,2.99.02.14.1.31.06.43-.18.47-2.7,1.3-3.14,1.05-2.45-1.39-4.52-3.27-6.39-5.34-3.55-3.91-6.52-8.24-9.12-12.84-3.06-5.42-5.55-11.08-7.22-17.07-.8-2.88-1.4-5.82-1.52-8.86Z"/>
  <path class="cls-1" d="M129.92,79.04c-1.1-3.38-2.15-6.62-3.2-9.85-.86-2.66-1.73-5.31-2.58-7.97-.83-2.6-1.63-5.22-2.46-7.82-.92-2.86-1.86-5.72-2.83-8.57-.25-.74-.09-1.07.68-1.17,1.69-.22,3.37-.67,5.06-.66,6.49.03,11.62,3.53,13.82,9.87,1.1,3.17,1.27,6.4.75,9.73-.99,6.3-3.91,11.51-8.51,15.85-.2.18-.41.34-.72.6Z"/>
  <path class="cls-1" d="M220.95,116.75c.67,4.06,1.35,8.12,2.01,12.18.59,3.64,1.15,7.29,1.68,10.94.03.21-.21.64-.39.69-2.42.61-4.82,1.38-7.35,1.35-1.29-.01-1.6-.33-1.63-1.65-.08-3.88.32-7.72,1.41-11.43,1.15-3.92,2.55-7.77,3.84-11.65.05-.16.16-.31.24-.46.07,0,.13.02.2.03Z"/>
  <path class="cls-1" d="M166.88,129.77c-.44,4.93-.83,9.87-1.34,14.79-.33,3.18-.75,6.36-1.34,9.5-.46,2.43-1.39,4.69-3.77,6.01-.7.39-1.1.29-1.53-.3-1.24-1.68-1.75-3.62-2.05-5.62-.55-3.75-.36-7.52,0-11.26.24-2.45.7-4.88,1.04-7.33.17-1.21.19-2.44.43-3.63.33-1.67.76-3.32,1.21-4.96.29-1.06.71-2.08,1.03-3.12.56-1.83,1.87-3.05,3.36-4.1.85-.6,1.34-.45,1.61.59.4,1.5.72,3.03.91,4.56.2,1.61.2,3.24.28,4.86.06,0,.11.02.17.03Z"/>
  <path class="cls-1" d="M75.54,161.66c.32-1.77,1.01-3.2,2-4.43,2.81-3.5,6.41-5.85,10.71-7.11,1.5-.44,3.04-.76,4.56-1.13.58-.14.83.16.97.68,1,3.61,2.01,7.21,3.02,10.82.88,3.14,1.73,6.3,2.65,9.43.17.56.07.82-.42,1.08-2.59,1.36-5.18,2.74-7.76,4.14-.5.27-.72.18-1.14-.2-2.48-2.27-5.03-4.47-7.55-6.69-2.14-1.89-4.29-3.77-6.42-5.67-.29-.26-.47-.66-.64-.91Z"/>
</svg>